PathFileType	4	(X/Y/Z)	Patient4_TMGait_0pt4_03_left_31.trc.trc
DataRate	CameraRate	NumFrames	NumMarkers	Units	OrigDataRate	OrigDataStartFrame	OrigNumFrames
73.298429319372	73.298429319372	6	33	mm	73.298429319372	53	       141
Frame#	Time	Sacral			L.Shoulder			Chest			R.Shoulder			Neck			R.ASIS			L.ASIS			R.Thigh.Superior			R.Thigh.Lateral			R.Thigh.Inferior			R.Patella			L.Thigh.Superior			L.Thigh.Lateral			L.Thigh.Inferior			L.Patella			L.Shank.Superior			L.Shank.Lateral			L.Shank.Inferior			R.Shank.Superior			R.Shank.Lateral			R.Shank.Inferior			R.Heel			R.Midfoot.Superior			R.Midfoot.Lateral			R.Toe			L.Heel			L.Midfoot.Lateral			L.Midfoot.Superior			L.Toe			L.Elbow			L.Wrist			R.Elbow			R.Wrist			
		X1	Y1	Z1	X2	Y2	Z2	X3	Y3	Z3	X4	Y4	Z4	X5	Y5	Z5	X6	Y6	Z6	X7	Y7	Z7	X8	Y8	Z8	X9	Y9	Z9	X10	Y10	Z10	X11	Y11	Z11	X12	Y12	Z12	X13	Y13	Z13	X14	Y14	Z14	X15	Y15	Z15	X16	Y16	Z16	X17	Y17	Z17	X18	Y18	Z18	X19	Y19	Z19	X20	Y20	Z20	X21	Y21	Z21	X22	Y22	Z22	X23	Y23	Z23	X24	Y24	Z24	X25	Y25	Z25	X26	Y26	Z26	X27	Y27	Z27	X28	Y28	Z28	X29	Y29	Z29	X30	Y30	Z30	X31	Y31	Z31	X32	Y32	Z32	X33	Y33	Z33	

53	41.549428571429	857.643026429494	1005.614255426342	417.886430529032	1022.702371853541	1429.541212780459	210.502989651733	1131.820804418312	1371.726038429714	371.629415255690	1052.512181031120	1449.487535974653	545.961618608698	1006.160895736703	1498.667837421302	365.156104876307	1092.682421039937	951.102429231033	527.537780244958	1069.327773378616	967.046092291807	254.234950810199	1176.002806235075	780.200484406321	498.686261880138	1140.109254284599	659.149906604132	577.837349234804	1228.006851918780	619.751161005140	497.541391664520	1249.994014531172	509.934255730597	522.099791315973	1119.500680828388	753.888935183483	279.473391577998	1027.114289783856	637.879741529574	225.444860021030	1114.330018104501	561.015715093672	283.965583597279	1114.131849563855	493.104034344289	294.562316020489	1090.264035449213	420.630417422655	288.280874711134	1001.382717157118	303.047303571345	241.576915708497	1059.332488466944	194.567295423091	313.467557603145	1179.360436932673	431.438812580317	533.155844865565	1064.514610786922	384.066921280998	600.527978160898	1055.875810328973	273.366864418466	553.877245379941	860.586065547528	197.449578930778	537.472019021439	1032.959331627659	147.348280880965	567.357270568873	926.305788139504	140.691381538882	607.951335656835	1107.033912846321	40.196020626481	591.909612709906	937.650034358883	38.160599496889	364.499911933930	1008.049396319092	34.671874486891	280.308870624977	1091.706652497737	96.434545388839	304.242811093231	1219.552248504503	46.562008631662	270.962518599197	1040.352357509464	1080.122672734013	83.620078820626	1219.714349948122	888.110974822580	61.265005418992	1041.453874250152	1103.204508914873	676.301151541692	1184.700616878915	885.358315295009	658.985949054509	
54	41.563071428571	856.353370795446	1006.063234744542	415.872223146178	1024.225589606316	1429.918591306657	209.454433830128	1131.469428774079	1371.884541836840	371.749676632548	1050.433237641733	1449.667967773760	545.268684553858	1006.078340629294	1499.097147836614	364.005297275883	1090.733117283476	952.079016089481	527.461589399342	1069.293607263478	967.171725254393	253.859691694917	1175.367684825702	782.706780232601	498.374005662760	1141.416696060099	661.614408807152	578.066994121602	1229.045850753001	622.906189555779	497.141025683197	1253.150107263398	514.197399707041	522.118832712631	1117.827010593035	753.281474561736	279.935333812742	1024.859417679414	637.896577108966	225.112998081361	1111.037351915041	560.418455789094	284.284314823818	1110.223146616457	492.619159354302	294.977778196582	1086.212664241404	420.302942625708	288.516243445550	997.189741145288	303.001576201204	241.496950322442	1054.409708660095	194.344243006552	313.596804184324	1184.999772788308	434.037614044218	533.557566213953	1072.186971063989	382.404494133048	601.046508896278	1067.943734712346	271.280399700219	554.658046897390	875.878813806819	187.798016212520	538.494682572963	1049.814952608143	144.101862711088	568.083775005405	943.703681591865	133.506088787954	608.892627629481	1127.897890320711	40.117658981404	592.640007828841	932.129569558835	38.166392943397	364.485534743965	1002.564024988064	34.677216039028	280.296727423006	1086.240339190050	96.356184922913	304.308600292252	1214.102587004810	46.435895862209	270.956864152850	1045.413453080690	1081.320642170276	81.394688171163	1231.228002410250	895.432114304930	59.846823957244	1032.287650561699	1103.995561564004	676.172236543971	1163.248189537414	877.709146205019	664.547471671273	
55	41.576714285714	855.139755930719	1006.470312907563	413.935939150440	1025.842373787914	1430.246062763729	208.618205050829	1131.225002484678	1371.946820071754	372.022019118225	1048.511962477273	1449.738040675751	544.737856619735	1006.110908881303	1499.432090033999	363.112772364379	1088.741816879154	952.887213605650	527.472758255044	1069.274426869401	967.178884339843	253.620789675249	1174.392708206879	784.731549424135	498.311116889007	1142.040434014245	663.696204484179	578.497428116260	1229.254483072092	625.444609521316	496.929638644341	1255.300047537094	518.103025647095	522.303703259169	1116.182074979055	752.667664993155	280.612715383157	1022.744277340526	637.883543054994	224.822801645814	1107.827133314294	559.820024512968	284.705952830914	1106.391283798014	492.118209030118	295.461032005899	1082.233004455150	419.944072675055	288.807808401566	993.081905319296	302.934489934130	241.424229160210	1049.519168613634	194.097822018620	313.754593315733	1190.031910877199	436.291444041143	534.164430210025	1079.786818730767	379.962695011196	601.904442221863	1080.455860112840	268.587032016863	555.729975261214	892.337562252413	176.675298371129	539.951961231342	1067.808164659592	140.492685234591	569.175018875168	962.512667947741	125.413230482279	610.281409393276	1150.373571783780	40.299058960674	593.781557869769	926.616503401987	38.169883515501	364.476404454528	997.079678561864	34.679666223332	280.290303663270	1080.782307160621	96.272350518608	304.390849075434	1208.659710541178	46.296252413506	270.958234321109	1049.993178084250	1082.467990272799	79.437516117654	1242.284228215848	903.180452654678	58.756369396135	1023.358019793350	1104.799205057814	675.968652335257	1141.869547676103	871.240617698828	669.769275575023	
56	41.590357142857	853.996682737859	1006.839591846076	412.078965627041	1027.540836711759	1430.507146767039	208.002672256924	1131.093012866554	1371.904588017850	372.448254873432	1046.768364790663	1449.699902819435	544.375879050838	1006.265291345505	1499.666419125322	362.481871113529	1086.718842813501	953.498437017893	527.569843647862	1069.249292420906	967.060461760417	253.519118053696	1173.061409571811	786.224027684558	498.496975027471	1141.912593573320	665.338498377411	579.107668766060	1228.616516828871	627.311393362093	496.937826326206	1256.405683820985	521.590054369005	522.646116244795	1114.566796546616	752.048764200972	281.464691521318	1020.757634813472	637.838701410675	224.568936271269	1104.694272739148	559.221325260895	285.212193258139	1102.634620111421	491.602804738985	295.995126601838	1078.321823612109	419.555899846154	289.141469633146	989.049373004358	302.847918401016	241.350642832645	1044.652218842151	193.828851806006	313.932687837504	1194.418358766169	438.205196023909	534.956717680089	1087.329855480687	376.856185665623	603.100781674575	1093.341008952458	265.482867818346	557.064153042257	909.983974682225	164.465450311132	541.823996257308	1086.806936113602	136.809192064693	570.587325344371	982.669487474067	116.784925453957	612.078225892358	1174.190000254557	41.016321556809	595.251566161655	921.113863352221	38.170672274002	364.469178126041	991.597578748083	34.678673631186	280.287756629078	1075.333550737557	96.183997500435	304.485949235592	1203.223531700710	46.142657879671	270.967172690853	1054.124402735496	1083.539279552829	77.733966974443	1252.844913399890	911.324353077330	57.981171155416	1014.643382503260	1105.606256624631	675.704033548167	1120.705830659223	865.911099206786	674.674324989406	
57	41.604000000000	852.921827126613	1007.179229820635	410.308136630981	1029.307595150664	1430.694069960101	207.613504293708	1131.076461858958	1371.757243489054	373.029340612716	1045.219281469272	1449.563867168716	544.188752820600	1006.542010230461	1499.802662475232	362.108871622943	1084.686237575433	953.898893081885	527.757096356540	1069.210582199378	966.823031923057	253.550530482490	1171.357066303935	787.145557917909	498.927570726389	1140.965758765681	666.497733491902	579.876771375224	1227.123887125036	628.471187100795	497.198915867095	1256.440957951203	524.608616068795	523.137939283399	1112.980278282119	751.424624093944	282.444032511670	1018.877716061419	637.763059280921	224.349975468732	1101.626283346868	558.622785447876	285.784378782720	1098.944808066629	491.076013949502	296.563507221230	1074.469024032262	419.143474786052	289.503392587033	985.073835574580	302.746610461499	241.271880205441	1039.795666834848	193.539776270696	314.122878286387	1198.121532927752	439.798735011010	535.911662682633	1094.819787891050	373.215639911880	604.622403052037	1106.509719043624	262.174053783342	558.615699635402	928.804096714947	151.567706051377	544.063744430340	1106.650449025367	133.333294321592	572.251306842353	1004.072116705681	107.991345193718	614.212060286946	1199.045828169239	42.538935768930	596.936396107312	915.623559052839	38.168810030948	364.460061864232	986.118413388176	34.673928436419	280.287280695271	1069.893730202649	96.092162386376	304.589021148967	1197.793348538967	45.974776695557	270.983982283677	1057.851814732376	1084.520279003015	76.275121952061	1262.874193184458	919.824522355605	57.514745340089	1006.121988346804	1106.425058206164	675.401770536292	1099.894420466980	861.665616477724	679.287984447767	
58	41.617642857143	851.918498357273	1007.498840109967	408.637210108483	1031.128128669639	1430.807194266620	207.453458110359	1131.175881547397	1371.510903440717	373.764860373688	1043.877771483256	1449.346418473583	544.181122149312	1006.936352093704	1499.850333656424	361.984610672702	1082.674388385985	954.088187390875	528.041203506906	1069.170714515398	966.491419954047	253.704592538145	1169.269627246499	787.472865150099	499.596349385436	1139.148025129185	667.147040105068	580.788095926813	1224.786105185779	628.910809321341	497.745259148707	1255.400335528121	527.121204100487	523.771471408688	1111.418916072451	750.793853488787	283.501869356008	1017.073254298335	637.660706583799	224.168252380599	1098.603279475572	558.024285476886	286.404121264327	1095.305963415205	490.542061464852	297.150403243189	1070.657690828152	418.714491421468	289.880322657802	981.129255786671	302.637713506328	241.186890127827	1034.932952668346	193.234857330946	314.317324447592	1201.108570073535	441.103272928053	537.004718819674	1102.239390048586	369.182850417617	606.440177004524	1119.846771030353	258.863882908348	560.325453856024	948.723826473392	138.384085537632	546.594498492146	1127.139283290069	130.320822649452	574.078865667384	1026.558722405680	99.380781319213	616.581812604038	1224.602125417270	45.093346168609	598.701639612330	910.145865789717	38.165080247275	364.445352790818	980.642270398906	34.665483498760	280.287195474588	1064.461424895163	95.998151793638	304.694162650741	1192.367883763412	45.792910639403	271.008503039710	1061.225941377712	1085.407013449233	75.057317718229	1272.339268994400	928.632292259039	57.356257956894	997.776973032109	1107.278229348240	675.091650165251	1079.575267855540	858.441312278406	683.626770437916	
